<?xml version="1.0" encoding="utf-8" standalone="no"?>
<!DOCTYPE svg PUBLIC "-//W3C//DTD SVG 1.1//EN"
  "http://www.w3.org/Graphics/SVG/1.1/DTD/svg11.dtd">
<svg xmlns:xlink="http://www.w3.org/1999/xlink" width="460.8pt" height="360pt" viewBox="0 0 460.8 360" xmlns="http://www.w3.org/2000/svg" version="1.1">
 <metadata>
  <rdf:RDF xmlns:dc="http://purl.org/dc/elements/1.1/" xmlns:cc="http://creativecommons.org/ns#" xmlns:rdf="http://www.w3.org/1999/02/22-rdf-syntax-ns#">
   <cc:Work>
    <dc:type rdf:resource="http://purl.org/dc/dcmitype/StillImage"/>
    <dc:date>2026-05-08T11:47:18.638900</dc:date>
    <dc:format>image/svg+xml</dc:format>
    <dc:creator>
     <cc:Agent>
      <dc:title>Matplotlib v3.10.8, https://matplotlib.org/</dc:title>
     </cc:Agent>
    </dc:creator>
   </cc:Work>
  </rdf:RDF>
 </metadata>
 <defs>
  <style type="text/css">*{stroke-linejoin: round; stroke-linecap: butt}</style>
 </defs>
 <g id="figure_1">
  <g id="patch_1">
   <path d="M 0 360 
L 460.8 360 
L 460.8 0 
L 0 0 
z
" style="fill: #ffffff"/>
  </g>
  <g id="axes_1">
   <g id="patch_2">
    <path d="M 58.16 320.564 
L 445.68 320.564 
L 445.68 34.48 
L 58.16 34.48 
z
" style="fill: #ffffff"/>
   </g>
   <g id="matplotlib.axis_1">
    <g id="xtick_1">
     <g id="line2d_1">
      <defs>
       <path id="md582c57a32" d="M 0 0 
L 0 3.5 
" style="stroke: #000000; stroke-width: 0.8"/>
      </defs>
      <g>
       <use xlink:href="#md582c57a32" x="106.6" y="320.564" style="stroke: #000000; stroke-width: 0.8"/>
      </g>
     </g>
     <g id="text_1">
      <!-- 2d_sum -->
      <g transform="translate(93.142109 333.499391) scale(0.085 -0.085)">
       <defs>
        <path id="LinLibertine-32" d="M 391 2994 
Q 391 3313 717 3608 
Q 1044 3903 1544 3903 
Q 1978 3903 2301 3658 
Q 2625 3413 2625 2931 
Q 2625 2700 2528 2495 
Q 2431 2291 2320 2159 
Q 2209 2028 1984 1813 
L 1338 1191 
Q 863 716 863 416 
L 2003 416 
Q 2175 416 2272 550 
Q 2369 684 2450 1031 
Q 2572 1056 2638 997 
Q 2625 550 2484 -13 
Q 2191 0 1984 0 
L 863 0 
L 331 -13 
Q 331 294 476 578 
Q 622 863 1063 1313 
L 1538 1778 
Q 2063 2309 2059 2906 
Q 2059 3322 1890 3501 
Q 1722 3681 1503 3681 
Q 1184 3681 1028 3559 
Q 872 3438 872 3291 
Q 872 3259 897 3201 
Q 922 3144 922 3138 
Q 947 3047 947 3003 
Q 947 2906 842 2826 
Q 738 2747 647 2747 
Q 544 2747 467 2819 
Q 391 2891 391 2994 
z
" transform="scale(0.015625)"/>
        <path id="LinLibertine-64" d="M 2209 794 
L 2209 2009 
Q 2209 2156 2189 2217 
Q 2169 2278 2100 2356 
Q 1903 2588 1581 2584 
Q 1197 2584 984 2266 
Q 800 2003 800 1416 
Q 800 853 1011 545 
Q 1222 238 1503 238 
Q 1753 238 2106 544 
Q 2209 634 2209 794 
z
M 2138 322 
Q 1669 -63 1338 -63 
Q 831 -63 540 314 
Q 250 691 250 1300 
Q 250 1984 691 2425 
Q 1094 2809 1650 2809 
Q 1747 2809 1862 2781 
Q 1978 2753 2061 2726 
Q 2144 2700 2150 2700 
Q 2206 2700 2209 2759 
L 2209 3578 
Q 2209 3784 2198 3886 
Q 2188 3988 2117 4036 
Q 2047 4084 2009 4087 
Q 1972 4091 1797 4103 
Q 1725 4175 1759 4294 
Q 2328 4338 2656 4469 
Q 2741 4469 2741 4403 
Q 2716 4147 2713 3731 
L 2713 831 
Q 2713 581 2800 486 
Q 2888 391 3181 366 
Q 3213 334 3213 276 
Q 3213 219 3181 191 
Q 2644 128 2406 -63 
Q 2334 -81 2284 -63 
Q 2213 163 2216 313 
Q 2216 328 2208 336 
Q 2200 344 2187 344 
Q 2175 344 2162 337 
Q 2150 331 2138 322 
z
" transform="scale(0.015625)"/>
        <path id="LinLibertine-5f" d="M 3047 -703 
Q 3084 -741 3084 -844 
Q 3084 -947 3047 -984 
L 63 -984 
Q 25 -947 25 -845 
Q 25 -744 63 -703 
L 3047 -703 
z
" transform="scale(0.015625)"/>
        <path id="LinLibertine-73" d="M 306 884 
Q 338 916 406 916 
Q 475 916 506 891 
Q 616 438 756 300 
Q 897 147 1209 147 
Q 1416 147 1584 262 
Q 1753 378 1753 594 
Q 1753 806 1622 934 
Q 1491 1063 1100 1222 
Q 716 1381 556 1567 
Q 397 1753 397 2094 
Q 397 2394 665 2601 
Q 934 2809 1300 2809 
Q 1447 2809 1600 2787 
Q 1753 2766 1923 2730 
Q 2094 2694 2138 2688 
Q 2138 2603 2119 2370 
Q 2100 2138 2100 2009 
Q 2069 1978 1997 1978 
Q 1925 1978 1894 2003 
Q 1863 2194 1789 2322 
Q 1716 2450 1616 2504 
Q 1516 2559 1442 2578 
Q 1369 2597 1300 2597 
Q 1128 2597 989 2486 
Q 850 2375 850 2188 
Q 850 2084 884 2003 
Q 919 1922 961 1870 
Q 1003 1819 1103 1764 
Q 1203 1709 1272 1681 
Q 1341 1653 1491 1594 
Q 2241 1309 2241 744 
Q 2241 519 2134 351 
Q 2028 184 1862 98 
Q 1697 13 1536 -25 
Q 1375 -63 1222 -63 
Q 909 -63 641 6 
Q 597 19 513 19 
Q 450 19 353 0 
Q 350 334 306 884 
z
" transform="scale(0.015625)"/>
        <path id="LinLibertine-75" d="M 1388 -63 
Q 947 -63 755 182 
Q 563 428 563 806 
L 563 2034 
Q 563 2334 483 2431 
Q 403 2528 166 2547 
Q 141 2572 141 2648 
Q 141 2725 166 2759 
Q 641 2747 819 2747 
Q 978 2747 1044 2759 
Q 1094 2759 1094 2719 
Q 1069 2250 1069 2059 
L 1069 897 
Q 1069 519 1225 378 
Q 1381 238 1581 238 
Q 1869 238 2222 544 
Q 2325 634 2322 794 
L 2322 2028 
Q 2322 2334 2245 2434 
Q 2169 2534 1925 2547 
Q 1894 2572 1894 2648 
Q 1894 2725 1925 2759 
Q 2400 2747 2578 2747 
Q 2738 2747 2803 2759 
Q 2853 2759 2853 2719 
Q 2828 2250 2828 2059 
L 2828 831 
Q 2828 581 2915 486 
Q 3003 391 3297 366 
Q 3328 334 3328 276 
Q 3328 219 3297 191 
Q 2759 128 2522 -63 
Q 2450 -81 2400 -63 
Q 2328 169 2328 313 
Q 2328 384 2253 319 
Q 1784 -63 1388 -63 
z
" transform="scale(0.015625)"/>
        <path id="LinLibertine-6d" d="M 1106 2291 
Q 1106 2213 1150 2275 
Q 1159 2284 1166 2291 
Q 1659 2809 2138 2809 
Q 2381 2809 2556 2676 
Q 2731 2544 2778 2341 
Q 2794 2278 2847 2338 
Q 3006 2506 3197 2615 
Q 3388 2725 3559 2767 
Q 3731 2809 3903 2809 
Q 4294 2809 4428 2546 
Q 4563 2284 4563 1791 
L 4563 781 
Q 4563 397 4630 308 
Q 4697 219 4972 197 
Q 4997 172 4997 95 
Q 4997 19 4972 -13 
Q 4422 0 4313 0 
Q 4197 0 3659 -13 
Q 3634 19 3634 95 
Q 3634 172 3659 197 
Q 3922 216 3989 309 
Q 4056 403 4056 781 
L 4056 1906 
Q 4056 2213 3961 2345 
Q 3866 2478 3675 2478 
Q 3216 2478 2828 2053 
Q 2834 1975 2834 1797 
L 2834 781 
Q 2834 397 2898 308 
Q 2963 219 3213 197 
Q 3238 172 3238 92 
Q 3238 13 3213 -13 
Q 2663 0 2584 0 
Q 2469 0 1931 -13 
Q 1906 13 1906 89 
Q 1906 166 1931 197 
Q 2200 216 2264 306 
Q 2328 397 2328 781 
L 2328 1894 
Q 2328 2475 1906 2478 
Q 1600 2478 1216 2100 
Q 1106 1984 1106 1831 
L 1106 781 
Q 1106 513 1139 400 
Q 1172 288 1240 252 
Q 1309 216 1491 197 
Q 1519 169 1519 92 
Q 1519 16 1491 -13 
Q 953 0 856 0 
Q 691 0 166 -13 
Q 141 13 141 89 
Q 141 166 166 197 
Q 447 216 525 309 
Q 603 403 603 781 
L 603 2028 
Q 603 2297 528 2367 
Q 453 2438 184 2463 
Q 147 2572 172 2644 
Q 672 2706 978 2828 
Q 1028 2828 1056 2778 
Q 1106 2663 1106 2291 
z
" transform="scale(0.015625)"/>
       </defs>
       <use xlink:href="#LinLibertine-32"/>
       <use xlink:href="#LinLibertine-64" transform="translate(46.484375 0)"/>
       <use xlink:href="#LinLibertine-5f" transform="translate(97.070312 0)"/>
       <use xlink:href="#LinLibertine-73" transform="translate(145.654297 0)"/>
       <use xlink:href="#LinLibertine-75" transform="translate(184.619141 0)"/>
       <use xlink:href="#LinLibertine-6d" transform="translate(237.695312 0)"/>
      </g>
      <!-- (raw) -->
      <g transform="translate(97.376172 342.610063) scale(0.085 -0.085)">
       <defs>
        <path id="LinLibertine-28" d="M 281 1613 
Q 281 2469 659 3237 
Q 1038 4006 1638 4525 
Q 1734 4519 1772 4409 
Q 813 3328 813 1613 
Q 813 -91 1772 -1197 
Q 1741 -1288 1638 -1306 
Q 1259 -981 987 -582 
Q 716 -184 584 131 
Q 453 447 376 797 
Q 300 1147 290 1303 
Q 281 1459 281 1613 
z
" transform="scale(0.015625)"/>
        <path id="LinLibertine-72" d="M 1147 2291 
Q 1147 2259 1156 2246 
Q 1166 2234 1197 2278 
Q 1325 2497 1514 2653 
Q 1703 2809 1906 2809 
Q 2091 2809 2191 2711 
Q 2291 2613 2291 2503 
Q 2291 2381 2198 2281 
Q 2106 2181 1991 2181 
Q 1947 2181 1901 2204 
Q 1856 2228 1834 2250 
Q 1813 2272 1777 2314 
Q 1741 2356 1728 2369 
Q 1684 2413 1594 2413 
Q 1516 2413 1300 2100 
Q 1147 1869 1147 1672 
L 1147 781 
Q 1147 397 1233 311 
Q 1319 225 1672 197 
Q 1703 166 1703 89 
Q 1703 13 1672 -13 
Q 1122 0 897 0 
Q 706 0 166 -13 
Q 141 13 141 89 
Q 141 166 166 197 
Q 478 216 559 306 
Q 641 397 641 781 
L 641 2028 
Q 641 2297 567 2367 
Q 494 2438 225 2463 
Q 188 2572 213 2644 
Q 713 2706 1019 2828 
Q 1069 2828 1094 2778 
Q 1147 2663 1147 2291 
z
" transform="scale(0.015625)"/>
        <path id="LinLibertine-61" d="M 1875 1491 
L 1369 1356 
Q 759 1203 763 653 
Q 763 481 880 339 
Q 997 197 1222 197 
Q 1447 197 1784 475 
Q 1875 538 1875 641 
L 1875 1491 
z
M 1875 306 
L 1863 306 
L 1734 206 
Q 1522 41 1387 -11 
Q 1253 -63 1038 -63 
Q 672 -63 451 103 
Q 231 269 231 628 
Q 231 947 522 1190 
Q 813 1434 1288 1556 
L 1838 1691 
Q 1875 1703 1875 1766 
Q 1875 2597 1356 2597 
Q 1144 2597 984 2530 
Q 825 2463 825 2328 
Q 825 2238 838 2203 
Q 856 2166 856 2088 
Q 856 2016 779 1945 
Q 703 1875 575 1875 
Q 350 1875 353 2100 
Q 353 2363 686 2586 
Q 1019 2809 1409 2809 
Q 2375 2809 2375 1728 
L 2375 775 
Q 2375 591 2384 494 
Q 2394 397 2455 314 
Q 2516 231 2631 231 
Q 2709 231 2765 281 
Q 2822 331 2828 331 
Q 2847 331 2880 293 
Q 2913 256 2913 225 
Q 2913 206 2845 139 
Q 2778 72 2643 4 
Q 2509 -63 2369 -63 
Q 1984 -66 1875 306 
z
" transform="scale(0.015625)"/>
        <path id="LinLibertine-77" d="M 1300 2547 
Q 1078 2534 1042 2440 
Q 1006 2347 1106 2119 
L 1619 800 
Q 1663 691 1686 666 
Q 1709 641 1731 669 
Q 1753 697 1797 813 
L 2247 1947 
L 2206 2047 
Q 2197 2069 2181 2106 
Q 2134 2228 2107 2284 
Q 2081 2341 2028 2409 
Q 1975 2478 1900 2508 
Q 1825 2538 1716 2547 
Q 1691 2572 1691 2648 
Q 1691 2725 1716 2759 
Q 2191 2747 2278 2747 
Q 2444 2747 2919 2759 
Q 2944 2728 2944 2650 
Q 2944 2572 2919 2547 
Q 2669 2528 2630 2454 
Q 2591 2381 2684 2156 
L 3238 756 
Q 3281 644 3300 638 
Q 3316 631 3338 681 
Q 3341 684 3378 781 
L 3916 2113 
Q 3950 2197 3962 2244 
Q 3975 2291 3975 2353 
Q 3975 2416 3939 2450 
Q 3903 2484 3817 2512 
Q 3731 2541 3591 2547 
Q 3559 2572 3559 2648 
Q 3559 2725 3591 2759 
Q 4066 2747 4256 2747 
Q 4384 2747 4703 2759 
Q 4734 2728 4736 2650 
Q 4738 2572 4703 2547 
Q 4478 2534 4365 2423 
Q 4253 2313 4163 2088 
L 3328 56 
Q 3278 -78 3181 -78 
Q 3084 -78 3028 50 
L 2369 1638 
L 1722 63 
Q 1659 -78 1569 -78 
Q 1472 -78 1416 50 
L 578 2119 
Q 475 2372 384 2448 
Q 294 2525 72 2547 
Q 41 2572 39 2648 
Q 38 2725 72 2759 
Q 403 2747 634 2747 
Q 825 2747 1300 2759 
Q 1331 2728 1331 2650 
Q 1331 2572 1300 2547 
z
" transform="scale(0.015625)"/>
        <path id="LinLibertine-29" d="M 1625 1613 
Q 1625 756 1248 -12 
Q 872 -781 269 -1300 
Q 172 -1294 134 -1184 
Q 1094 -103 1094 1613 
Q 1094 3316 134 4422 
Q 166 4513 269 4531 
Q 647 4206 919 3809 
Q 1191 3413 1322 3095 
Q 1453 2778 1529 2429 
Q 1606 2081 1615 1923 
Q 1625 1766 1625 1613 
z
" transform="scale(0.015625)"/>
       </defs>
       <use xlink:href="#LinLibertine-28"/>
       <use xlink:href="#LinLibertine-72" transform="translate(29.785156 0)"/>
       <use xlink:href="#LinLibertine-61" transform="translate(66.943359 0)"/>
       <use xlink:href="#LinLibertine-77" transform="translate(112.597656 0)"/>
       <use xlink:href="#LinLibertine-29" transform="translate(187.255859 0)"/>
      </g>
     </g>
    </g>
    <g id="xtick_2">
     <g id="line2d_2">
      <g>
       <use xlink:href="#md582c57a32" x="203.48" y="320.564" style="stroke: #000000; stroke-width: 0.8"/>
      </g>
     </g>
     <g id="text_2">
      <!-- 3d_crop -->
      <g transform="translate(189.546641 333.499391) scale(0.085 -0.085)">
       <defs>
        <path id="LinLibertine-33" d="M 1375 3681 
Q 1259 3681 1139 3648 
Q 1019 3616 894 3497 
Q 769 3378 769 3194 
Q 769 2863 519 2859 
Q 416 2859 358 2931 
Q 300 3003 300 3078 
Q 300 3175 361 3300 
Q 422 3425 550 3569 
Q 678 3713 931 3808 
Q 1184 3903 1509 3903 
Q 1963 3903 2209 3653 
Q 2409 3450 2409 3147 
Q 2409 2878 2261 2676 
Q 2113 2475 1734 2297 
L 1741 2284 
Q 2100 2228 2372 1984 
Q 2644 1741 2644 1275 
Q 2644 666 2220 301 
Q 1797 -63 1203 -63 
Q 884 -63 582 60 
Q 281 184 281 366 
Q 281 444 367 516 
Q 453 588 550 588 
Q 703 588 825 422 
Q 831 416 854 381 
Q 878 347 887 333 
Q 897 319 919 291 
Q 941 263 959 250 
Q 978 238 1014 214 
Q 1050 191 1087 181 
Q 1125 172 1176 165 
Q 1228 159 1288 159 
Q 1391 159 1508 204 
Q 1625 250 1762 348 
Q 1900 447 1990 665 
Q 2081 884 2081 1184 
Q 2081 2009 1241 2009 
Q 1044 2009 934 1997 
L 903 2203 
Q 1347 2266 1628 2548 
Q 1909 2831 1909 3103 
Q 1909 3300 1831 3433 
Q 1753 3566 1637 3623 
Q 1522 3681 1375 3681 
z
" transform="scale(0.015625)"/>
        <path id="LinLibertine-63" d="M 2547 581 
Q 2322 209 2073 73 
Q 1825 -63 1503 -63 
Q 909 -63 573 317 
Q 238 697 238 1331 
Q 238 1978 641 2393 
Q 1044 2809 1550 2809 
Q 2003 2809 2265 2640 
Q 2528 2472 2528 2203 
Q 2528 2069 2428 1994 
Q 2328 1919 2216 1919 
Q 1997 1919 1972 2150 
Q 1959 2291 1929 2370 
Q 1900 2450 1798 2523 
Q 1697 2597 1516 2597 
Q 1197 2597 992 2294 
Q 788 1991 788 1472 
Q 788 922 1038 586 
Q 1288 250 1644 250 
Q 2084 250 2413 672 
Q 2516 659 2547 581 
z
" transform="scale(0.015625)"/>
        <path id="LinLibertine-6f" d="M 263 1313 
Q 263 1947 616 2363 
Q 997 2809 1619 2809 
Q 2078 2809 2395 2582 
Q 2713 2356 2838 2042 
Q 2963 1728 2963 1369 
Q 2963 700 2547 294 
Q 2181 -66 1606 -63 
Q 966 -63 614 353 
Q 263 769 263 1313 
z
M 1522 2584 
Q 813 2584 813 1459 
Q 813 1253 861 1042 
Q 909 831 1004 626 
Q 1100 422 1279 290 
Q 1459 159 1697 159 
Q 1978 159 2195 390 
Q 2413 622 2413 1166 
Q 2413 1850 2175 2217 
Q 1938 2584 1522 2584 
z
" transform="scale(0.015625)"/>
        <path id="LinLibertine-70" d="M 1119 2119 
Q 1016 1991 1019 1838 
L 1019 672 
Q 1019 553 1031 492 
Q 1044 431 1072 392 
Q 1100 353 1172 288 
Q 1250 219 1383 186 
Q 1516 153 1625 153 
Q 1881 153 2067 259 
Q 2253 366 2348 547 
Q 2444 728 2486 920 
Q 2528 1113 2528 1331 
Q 2528 1856 2308 2186 
Q 2088 2516 1766 2516 
Q 1631 2516 1439 2397 
Q 1247 2278 1119 2119 
z
M 1019 2356 
Q 1019 2325 1037 2317 
Q 1056 2309 1069 2328 
Q 1478 2809 1947 2809 
Q 2428 2809 2753 2418 
Q 3078 2028 3078 1503 
Q 3078 753 2606 294 
Q 2228 -66 1663 -63 
Q 1350 -63 1106 34 
Q 1056 59 1037 53 
Q 1019 47 1019 -13 
L 1019 -703 
Q 1019 -1088 1105 -1178 
Q 1191 -1269 1544 -1288 
Q 1575 -1319 1575 -1395 
Q 1575 -1472 1544 -1497 
Q 994 -1484 769 -1484 
Q 591 -1484 50 -1497 
Q 25 -1472 25 -1395 
Q 25 -1319 50 -1288 
Q 350 -1275 431 -1181 
Q 513 -1088 513 -703 
L 513 2028 
Q 513 2297 439 2367 
Q 366 2438 97 2463 
Q 59 2572 84 2644 
Q 584 2706 891 2828 
Q 941 2828 966 2778 
Q 1019 2663 1019 2356 
z
" transform="scale(0.015625)"/>
       </defs>
       <use xlink:href="#LinLibertine-33"/>
       <use xlink:href="#LinLibertine-64" transform="translate(46.484375 0)"/>
       <use xlink:href="#LinLibertine-5f" transform="translate(97.070312 0)"/>
       <use xlink:href="#LinLibertine-63" transform="translate(145.654297 0)"/>
       <use xlink:href="#LinLibertine-72" transform="translate(188.427734 0)"/>
       <use xlink:href="#LinLibertine-6f" transform="translate(225.585938 0)"/>
       <use xlink:href="#LinLibertine-70" transform="translate(275.976562 0)"/>
      </g>
      <!-- (raw) -->
      <g transform="translate(194.256172 342.610063) scale(0.085 -0.085)">
       <use xlink:href="#LinLibertine-28"/>
       <use xlink:href="#LinLibertine-72" transform="translate(29.785156 0)"/>
       <use xlink:href="#LinLibertine-61" transform="translate(66.943359 0)"/>
       <use xlink:href="#LinLibertine-77" transform="translate(112.597656 0)"/>
       <use xlink:href="#LinLibertine-29" transform="translate(187.255859 0)"/>
      </g>
     </g>
    </g>
    <g id="xtick_3">
     <g id="line2d_3">
      <g>
       <use xlink:href="#md582c57a32" x="300.36" y="320.564" style="stroke: #000000; stroke-width: 0.8"/>
      </g>
     </g>
     <g id="text_3">
      <!-- 3d_crop -->
      <g transform="translate(286.426641 333.499391) scale(0.085 -0.085)">
       <use xlink:href="#LinLibertine-33"/>
       <use xlink:href="#LinLibertine-64" transform="translate(46.484375 0)"/>
       <use xlink:href="#LinLibertine-5f" transform="translate(97.070312 0)"/>
       <use xlink:href="#LinLibertine-63" transform="translate(145.654297 0)"/>
       <use xlink:href="#LinLibertine-72" transform="translate(188.427734 0)"/>
       <use xlink:href="#LinLibertine-6f" transform="translate(225.585938 0)"/>
       <use xlink:href="#LinLibertine-70" transform="translate(275.976562 0)"/>
      </g>
      <!-- (registered) -->
      <g transform="translate(280.549023 342.708875) scale(0.085 -0.085)">
       <defs>
        <path id="LinLibertine-65" d="M 794 1806 
L 1953 1825 
Q 2050 1825 2047 1913 
Q 2047 2278 1890 2431 
Q 1734 2584 1516 2584 
Q 1431 2584 1350 2562 
Q 1269 2541 1150 2470 
Q 1031 2400 934 2228 
Q 838 2056 794 1806 
z
M 2472 594 
Q 2581 588 2606 494 
Q 2178 -63 1516 -63 
Q 881 -63 538 347 
Q 238 694 238 1294 
Q 238 1972 644 2384 
Q 1050 2797 1516 2797 
Q 2597 2797 2597 1684 
Q 2597 1575 2478 1575 
L 775 1588 
Q 775 1050 978 709 
Q 1259 250 1678 250 
Q 1947 250 2117 326 
Q 2288 403 2472 594 
z
" transform="scale(0.015625)"/>
        <path id="LinLibertine-67" d="M 2041 1784 
Q 2041 2181 1881 2397 
Q 1722 2613 1422 2613 
Q 909 2613 909 1931 
Q 909 1753 928 1622 
Q 947 1491 1005 1353 
Q 1063 1216 1188 1142 
Q 1313 1069 1503 1069 
Q 2041 1069 2041 1784 
z
M 844 -63 
Q 647 -300 647 -666 
Q 647 -953 915 -1120 
Q 1184 -1288 1416 -1288 
Q 1716 -1288 1997 -1209 
Q 2278 -1131 2473 -965 
Q 2669 -800 2669 -581 
Q 2669 -459 2598 -376 
Q 2528 -294 2344 -184 
Q 2147 -75 1569 -78 
Q 1538 -78 1377 -87 
Q 1216 -97 1100 -97 
Q 959 -94 844 -63 
z
M 2841 2478 
Q 2719 2478 2663 2591 
Q 2613 2669 2534 2669 
Q 2478 2669 2397 2617 
Q 2316 2566 2278 2516 
Q 2553 2234 2553 1850 
Q 2553 1403 2236 1137 
Q 1919 872 1472 872 
Q 1119 872 891 1006 
Q 775 847 775 634 
Q 775 450 897 359 
Q 1019 269 1184 269 
L 1375 281 
Q 1631 313 1806 313 
Q 2484 313 2741 103 
Q 3022 -128 3022 -416 
Q 3022 -747 2750 -1008 
Q 2478 -1269 2070 -1395 
Q 1663 -1522 1222 -1522 
Q 794 -1522 500 -1350 
Q 206 -1178 206 -794 
Q 206 -334 728 -19 
Q 434 128 434 475 
Q 434 647 511 830 
Q 588 1013 716 1119 
Q 384 1438 384 1838 
Q 384 2266 711 2537 
Q 1038 2809 1478 2809 
Q 1875 2809 2144 2631 
Q 2259 2784 2451 2870 
Q 2644 2956 2784 2956 
Q 2913 2956 2995 2889 
Q 3078 2822 3078 2719 
Q 3078 2622 3004 2550 
Q 2931 2478 2841 2478 
z
" transform="scale(0.015625)"/>
        <path id="LinLibertine-69" d="M 575 3834 
Q 575 3950 684 4045 
Q 794 4141 909 4141 
Q 1031 4141 1123 4034 
Q 1216 3928 1216 3809 
Q 1216 3700 1114 3600 
Q 1013 3500 884 3500 
Q 769 3500 672 3606 
Q 575 3713 575 3834 
z
M 1159 781 
Q 1159 397 1236 308 
Q 1313 219 1619 197 
Q 1650 166 1650 89 
Q 1650 13 1619 -13 
Q 1069 0 909 0 
Q 731 0 191 -13 
Q 166 13 166 89 
Q 166 166 191 197 
Q 497 222 575 309 
Q 653 397 653 781 
L 653 2028 
Q 653 2297 579 2367 
Q 506 2438 238 2463 
Q 200 2572 225 2644 
Q 819 2722 1100 2828 
Q 1184 2828 1184 2784 
Q 1184 2769 1181 2739 
Q 1178 2709 1175 2620 
Q 1172 2531 1167 2448 
Q 1163 2366 1161 2256 
Q 1159 2147 1159 2056 
L 1159 781 
z
" transform="scale(0.015625)"/>
        <path id="LinLibertine-74" d="M 275 2747 
L 569 2747 
Q 569 2944 567 3086 
Q 566 3228 562 3293 
Q 559 3359 556 3396 
Q 553 3434 551 3453 
Q 550 3472 550 3488 
Q 550 3509 575 3528 
Q 600 3547 629 3556 
Q 659 3566 711 3581 
Q 763 3597 794 3609 
Q 831 3625 890 3656 
Q 950 3688 990 3706 
Q 1031 3725 1050 3725 
Q 1100 3725 1100 3669 
Q 1075 3413 1075 2994 
L 1075 2747 
L 1844 2747 
Q 1894 2747 1894 2706 
L 1894 2578 
Q 1894 2494 1741 2497 
L 1075 2497 
L 1075 878 
Q 1075 566 1120 427 
Q 1166 288 1288 288 
Q 1581 288 1813 469 
Q 1909 463 1925 359 
Q 1547 -63 1063 -63 
Q 569 -63 569 569 
L 569 2497 
L 191 2497 
Q 159 2497 159 2534 
L 159 2619 
Q 159 2747 275 2747 
z
" transform="scale(0.015625)"/>
       </defs>
       <use xlink:href="#LinLibertine-28"/>
       <use xlink:href="#LinLibertine-72" transform="translate(29.785156 0)"/>
       <use xlink:href="#LinLibertine-65" transform="translate(66.943359 0)"/>
       <use xlink:href="#LinLibertine-67" transform="translate(111.621094 0)"/>
       <use xlink:href="#LinLibertine-69" transform="translate(161.621094 0)"/>
       <use xlink:href="#LinLibertine-73" transform="translate(188.720703 0)"/>
       <use xlink:href="#LinLibertine-74" transform="translate(227.685547 0)"/>
       <use xlink:href="#LinLibertine-65" transform="translate(259.277344 0)"/>
       <use xlink:href="#LinLibertine-72" transform="translate(303.955078 0)"/>
       <use xlink:href="#LinLibertine-65" transform="translate(341.113281 0)"/>
       <use xlink:href="#LinLibertine-64" transform="translate(385.791016 0)"/>
       <use xlink:href="#LinLibertine-29" transform="translate(436.376953 0)"/>
      </g>
     </g>
    </g>
    <g id="xtick_4">
     <g id="line2d_4">
      <g>
       <use xlink:href="#md582c57a32" x="397.24" y="320.564" style="stroke: #000000; stroke-width: 0.8"/>
      </g>
     </g>
     <g id="text_4">
      <!-- 2d_sum -->
      <g transform="translate(383.782109 333.499391) scale(0.085 -0.085)">
       <use xlink:href="#LinLibertine-32"/>
       <use xlink:href="#LinLibertine-64" transform="translate(46.484375 0)"/>
       <use xlink:href="#LinLibertine-5f" transform="translate(97.070312 0)"/>
       <use xlink:href="#LinLibertine-73" transform="translate(145.654297 0)"/>
       <use xlink:href="#LinLibertine-75" transform="translate(184.619141 0)"/>
       <use xlink:href="#LinLibertine-6d" transform="translate(237.695312 0)"/>
      </g>
      <!-- (registered) -->
      <g transform="translate(377.429023 342.708875) scale(0.085 -0.085)">
       <use xlink:href="#LinLibertine-28"/>
       <use xlink:href="#LinLibertine-72" transform="translate(29.785156 0)"/>
       <use xlink:href="#LinLibertine-65" transform="translate(66.943359 0)"/>
       <use xlink:href="#LinLibertine-67" transform="translate(111.621094 0)"/>
       <use xlink:href="#LinLibertine-69" transform="translate(161.621094 0)"/>
       <use xlink:href="#LinLibertine-73" transform="translate(188.720703 0)"/>
       <use xlink:href="#LinLibertine-74" transform="translate(227.685547 0)"/>
       <use xlink:href="#LinLibertine-65" transform="translate(259.277344 0)"/>
       <use xlink:href="#LinLibertine-72" transform="translate(303.955078 0)"/>
       <use xlink:href="#LinLibertine-65" transform="translate(341.113281 0)"/>
       <use xlink:href="#LinLibertine-64" transform="translate(385.791016 0)"/>
       <use xlink:href="#LinLibertine-29" transform="translate(436.376953 0)"/>
      </g>
     </g>
    </g>
   </g>
   <g id="matplotlib.axis_2">
    <g id="ytick_1">
     <g id="line2d_5">
      <path d="M 58.16 305.519384 
L 445.68 305.519384 
" clip-path="url(#pb53eb5a566)" style="fill: none; stroke-dasharray: 2.96,1.28; stroke-dashoffset: 0; stroke: #b0b0b0; stroke-opacity: 0.3; stroke-width: 0.8"/>
     </g>
     <g id="line2d_6">
      <defs>
       <path id="ma37088dd7f" d="M 0 0 
L -3.5 0 
" style="stroke: #000000; stroke-width: 0.8"/>
      </defs>
      <g>
       <use xlink:href="#ma37088dd7f" x="58.16" y="305.519384" style="stroke: #000000; stroke-width: 0.8"/>
      </g>
     </g>
     <g id="text_5">
      <!-- 0.75 -->
      <g transform="translate(28.560937 310.407353) scale(0.14 -0.14)">
       <defs>
        <path id="LinLibertine-30" d="M 1484 3681 
Q 1363 3681 1255 3603 
Q 1147 3525 1040 3340 
Q 934 3156 870 2762 
Q 806 2369 806 1813 
Q 806 163 1466 159 
Q 1522 159 1586 178 
Q 1650 197 1737 251 
Q 1825 306 1904 431 
Q 1984 556 2034 744 
Q 2144 1141 2144 2059 
Q 2144 3256 1772 3572 
Q 1650 3681 1484 3681 
z
M 1459 -63 
Q 1078 -63 809 206 
Q 547 466 398 916 
Q 250 1366 250 1881 
Q 250 2791 617 3347 
Q 984 3903 1484 3903 
Q 1953 3903 2266 3488 
Q 2700 2913 2700 1941 
Q 2700 1409 2578 998 
Q 2456 588 2262 367 
Q 2069 147 1862 42 
Q 1656 -63 1459 -63 
z
" transform="scale(0.015625)"/>
        <path id="LinLibertine-2e" d="M 464 35 
Q 366 134 366 275 
Q 366 416 464 516 
Q 563 616 703 616 
Q 844 616 944 516 
Q 1044 416 1044 275 
Q 1044 134 944 35 
Q 844 -63 703 -63 
Q 563 -63 464 35 
z
" transform="scale(0.015625)"/>
        <path id="LinLibertine-37" d="M 1088 3425 
Q 966 3425 880 3395 
Q 794 3366 694 3237 
Q 594 3109 531 2869 
Q 434 2856 325 2888 
Q 447 3688 453 3909 
Q 453 3928 481 3928 
Q 506 3922 589 3881 
Q 672 3841 800 3841 
L 2119 3841 
Q 2375 3841 2613 3909 
L 2713 3834 
Q 2022 2144 1281 -63 
L 844 -84 
L 794 -38 
Q 1269 1019 2234 3425 
L 1088 3425 
z
" transform="scale(0.015625)"/>
        <path id="LinLibertine-35" d="M 2041 1209 
Q 2041 1709 1836 1945 
Q 1631 2181 1300 2181 
Q 897 2181 488 2028 
L 703 3872 
Q 1075 3841 1394 3841 
Q 1778 3841 2444 3909 
L 2491 3884 
L 2388 3450 
Q 1991 3413 1716 3413 
Q 1497 3413 966 3469 
L 838 2400 
Q 1100 2503 1466 2503 
Q 1984 2503 2298 2158 
Q 2613 1813 2613 1325 
Q 2613 716 2231 322 
Q 1850 -72 1253 -72 
Q 959 -72 653 76 
Q 347 225 347 409 
Q 347 506 420 576 
Q 494 647 588 647 
Q 759 647 916 441 
Q 922 428 953 387 
Q 984 347 998 326 
Q 1013 306 1044 275 
Q 1075 244 1100 228 
Q 1125 213 1164 189 
Q 1203 166 1245 159 
Q 1288 153 1338 153 
Q 1631 153 1836 458 
Q 2041 763 2041 1209 
z
" transform="scale(0.015625)"/>
       </defs>
       <use xlink:href="#LinLibertine-30"/>
       <use xlink:href="#LinLibertine-2e" transform="translate(46.484375 0)"/>
       <use xlink:href="#LinLibertine-37" transform="translate(68.457031 0)"/>
       <use xlink:href="#LinLibertine-35" transform="translate(114.941406 0)"/>
      </g>
     </g>
    </g>
    <g id="ytick_2">
     <g id="line2d_7">
      <path d="M 58.16 261.803355 
L 445.68 261.803355 
" clip-path="url(#pb53eb5a566)" style="fill: none; stroke-dasharray: 2.96,1.28; stroke-dashoffset: 0; stroke: #b0b0b0; stroke-opacity: 0.3; stroke-width: 0.8"/>
     </g>
     <g id="line2d_8">
      <g>
       <use xlink:href="#ma37088dd7f" x="58.16" y="261.803355" style="stroke: #000000; stroke-width: 0.8"/>
      </g>
     </g>
     <g id="text_6">
      <!-- 0.80 -->
      <g transform="translate(28.560937 266.691323) scale(0.14 -0.14)">
       <defs>
        <path id="LinLibertine-38" d="M 1497 3681 
Q 1222 3681 1065 3526 
Q 909 3372 909 3144 
Q 909 2966 995 2808 
Q 1081 2650 1356 2472 
L 1556 2350 
Q 2069 2728 2069 3109 
Q 2069 3353 1930 3517 
Q 1791 3681 1497 3681 
z
M 2516 3103 
Q 2516 2828 2269 2595 
Q 2022 2363 1728 2216 
L 2181 1941 
Q 2681 1641 2681 1038 
Q 2681 628 2348 282 
Q 2016 -63 1434 -63 
Q 916 -63 605 195 
Q 294 453 294 934 
Q 294 1375 666 1703 
Q 888 1897 1181 2053 
L 1019 2156 
Q 456 2509 453 3022 
Q 453 3400 751 3651 
Q 1050 3903 1528 3903 
Q 1988 3903 2252 3679 
Q 2516 3456 2516 3103 
z
M 1447 159 
Q 1741 159 1978 323 
Q 2216 488 2216 909 
Q 2216 1422 1656 1759 
L 1356 1941 
Q 997 1703 859 1425 
Q 722 1147 722 934 
Q 722 544 950 351 
Q 1178 159 1447 159 
z
" transform="scale(0.015625)"/>
       </defs>
       <use xlink:href="#LinLibertine-30"/>
       <use xlink:href="#LinLibertine-2e" transform="translate(46.484375 0)"/>
       <use xlink:href="#LinLibertine-38" transform="translate(68.457031 0)"/>
       <use xlink:href="#LinLibertine-30" transform="translate(114.941406 0)"/>
      </g>
     </g>
    </g>
    <g id="ytick_3">
     <g id="line2d_9">
      <path d="M 58.16 218.087325 
L 445.68 218.087325 
" clip-path="url(#pb53eb5a566)" style="fill: none; stroke-dasharray: 2.96,1.28; stroke-dashoffset: 0; stroke: #b0b0b0; stroke-opacity: 0.3; stroke-width: 0.8"/>
     </g>
     <g id="line2d_10">
      <g>
       <use xlink:href="#ma37088dd7f" x="58.16" y="218.087325" style="stroke: #000000; stroke-width: 0.8"/>
      </g>
     </g>
     <g id="text_7">
      <!-- 0.85 -->
      <g transform="translate(28.560937 222.975294) scale(0.14 -0.14)">
       <use xlink:href="#LinLibertine-30"/>
       <use xlink:href="#LinLibertine-2e" transform="translate(46.484375 0)"/>
       <use xlink:href="#LinLibertine-38" transform="translate(68.457031 0)"/>
       <use xlink:href="#LinLibertine-35" transform="translate(114.941406 0)"/>
      </g>
     </g>
    </g>
    <g id="ytick_4">
     <g id="line2d_11">
      <path d="M 58.16 174.371295 
L 445.68 174.371295 
" clip-path="url(#pb53eb5a566)" style="fill: none; stroke-dasharray: 2.96,1.28; stroke-dashoffset: 0; stroke: #b0b0b0; stroke-opacity: 0.3; stroke-width: 0.8"/>
     </g>
     <g id="line2d_12">
      <g>
       <use xlink:href="#ma37088dd7f" x="58.16" y="174.371295" style="stroke: #000000; stroke-width: 0.8"/>
      </g>
     </g>
     <g id="text_8">
      <!-- 0.90 -->
      <g transform="translate(28.560937 179.259264) scale(0.14 -0.14)">
       <defs>
        <path id="LinLibertine-39" d="M 2150 1869 
Q 2203 2125 2203 2369 
Q 2203 3125 1993 3403 
Q 1784 3681 1434 3681 
Q 1184 3681 1017 3418 
Q 850 3156 850 2656 
Q 850 2516 886 2372 
Q 922 2228 998 2073 
Q 1075 1919 1234 1820 
Q 1394 1722 1619 1722 
Q 1925 1722 2150 1869 
z
M 2091 1638 
Q 1788 1500 1484 1497 
Q 875 1497 597 1789 
Q 319 2081 319 2541 
Q 319 3034 626 3468 
Q 934 3903 1503 3903 
Q 1716 3903 1908 3839 
Q 2100 3775 2298 3619 
Q 2497 3463 2614 3136 
Q 2731 2809 2731 2350 
Q 2731 1494 2138 800 
Q 1606 178 738 -78 
Q 659 -34 659 91 
Q 1250 313 1595 725 
Q 1941 1138 2091 1638 
z
" transform="scale(0.015625)"/>
       </defs>
       <use xlink:href="#LinLibertine-30"/>
       <use xlink:href="#LinLibertine-2e" transform="translate(46.484375 0)"/>
       <use xlink:href="#LinLibertine-39" transform="translate(68.457031 0)"/>
       <use xlink:href="#LinLibertine-30" transform="translate(114.941406 0)"/>
      </g>
     </g>
    </g>
    <g id="ytick_5">
     <g id="line2d_13">
      <path d="M 58.16 130.655265 
L 445.68 130.655265 
" clip-path="url(#pb53eb5a566)" style="fill: none; stroke-dasharray: 2.96,1.28; stroke-dashoffset: 0; stroke: #b0b0b0; stroke-opacity: 0.3; stroke-width: 0.8"/>
     </g>
     <g id="line2d_14">
      <g>
       <use xlink:href="#ma37088dd7f" x="58.16" y="130.655265" style="stroke: #000000; stroke-width: 0.8"/>
      </g>
     </g>
     <g id="text_9">
      <!-- 0.95 -->
      <g transform="translate(28.560937 135.543234) scale(0.14 -0.14)">
       <use xlink:href="#LinLibertine-30"/>
       <use xlink:href="#LinLibertine-2e" transform="translate(46.484375 0)"/>
       <use xlink:href="#LinLibertine-39" transform="translate(68.457031 0)"/>
       <use xlink:href="#LinLibertine-35" transform="translate(114.941406 0)"/>
      </g>
     </g>
    </g>
    <g id="ytick_6">
     <g id="line2d_15">
      <path d="M 58.16 86.939236 
L 445.68 86.939236 
" clip-path="url(#pb53eb5a566)" style="fill: none; stroke-dasharray: 2.96,1.28; stroke-dashoffset: 0; stroke: #b0b0b0; stroke-opacity: 0.3; stroke-width: 0.8"/>
     </g>
     <g id="line2d_16">
      <g>
       <use xlink:href="#ma37088dd7f" x="58.16" y="86.939236" style="stroke: #000000; stroke-width: 0.8"/>
      </g>
     </g>
     <g id="text_10">
      <!-- 1.00 -->
      <g transform="translate(28.560937 91.827204) scale(0.14 -0.14)">
       <defs>
        <path id="LinLibertine-31" d="M 1844 781 
Q 1844 397 1942 305 
Q 2041 213 2400 197 
Q 2431 166 2431 89 
Q 2431 13 2400 -13 
Q 1759 0 1619 0 
Q 1356 0 728 -13 
Q 703 13 703 89 
Q 703 166 728 197 
Q 1100 209 1225 309 
Q 1350 409 1350 781 
L 1350 2869 
Q 1350 3241 1222 3238 
Q 1050 3238 666 3078 
Q 588 3128 569 3250 
Q 1466 3666 1825 3891 
Q 1863 3891 1863 3859 
Q 1844 3713 1844 3003 
L 1844 781 
z
" transform="scale(0.015625)"/>
       </defs>
       <use xlink:href="#LinLibertine-31"/>
       <use xlink:href="#LinLibertine-2e" transform="translate(46.484375 0)"/>
       <use xlink:href="#LinLibertine-30" transform="translate(68.457031 0)"/>
       <use xlink:href="#LinLibertine-30" transform="translate(114.941406 0)"/>
      </g>
     </g>
    </g>
    <g id="ytick_7">
     <g id="line2d_17">
      <path d="M 58.16 43.223206 
L 445.68 43.223206 
" clip-path="url(#pb53eb5a566)" style="fill: none; stroke-dasharray: 2.96,1.28; stroke-dashoffset: 0; stroke: #b0b0b0; stroke-opacity: 0.3; stroke-width: 0.8"/>
     </g>
     <g id="line2d_18">
      <g>
       <use xlink:href="#ma37088dd7f" x="58.16" y="43.223206" style="stroke: #000000; stroke-width: 0.8"/>
      </g>
     </g>
     <g id="text_11">
      <!-- 1.05 -->
      <g transform="translate(28.560937 48.111175) scale(0.14 -0.14)">
       <use xlink:href="#LinLibertine-31"/>
       <use xlink:href="#LinLibertine-2e" transform="translate(46.484375 0)"/>
       <use xlink:href="#LinLibertine-30" transform="translate(68.457031 0)"/>
       <use xlink:href="#LinLibertine-35" transform="translate(114.941406 0)"/>
      </g>
     </g>
    </g>
    <g id="text_12">
     <!-- F1 Score -->
     <g transform="translate(22.221875 194.65325) rotate(-90) scale(0.1 -0.1)">
      <defs>
       <path id="LinLibertine-46" d="M 1759 2069 
L 1166 2069 
L 1166 781 
Q 1166 397 1264 305 
Q 1363 213 1722 197 
Q 1753 166 1753 89 
Q 1753 13 1722 -13 
Q 1081 0 897 0 
Q 691 0 63 -13 
Q 38 13 38 89 
Q 38 166 63 197 
Q 422 209 522 303 
Q 622 397 622 781 
L 622 3347 
Q 622 3731 522 3823 
Q 422 3916 63 3928 
Q 38 3953 38 4031 
Q 38 4109 63 4141 
L 891 4128 
L 2525 4128 
Q 2694 4128 2825 4153 
Q 2847 4153 2850 4134 
Q 2919 3766 2988 3206 
Q 2903 3175 2791 3175 
Q 2713 3425 2623 3559 
Q 2534 3694 2336 3783 
Q 2138 3872 1813 3872 
L 1394 3872 
Q 1163 3872 1166 3653 
L 1166 2309 
L 1759 2309 
Q 2150 2309 2239 2386 
Q 2328 2463 2344 2747 
Q 2369 2778 2445 2778 
Q 2522 2778 2553 2747 
Q 2541 2363 2541 2194 
Q 2541 2078 2553 1631 
Q 2522 1600 2445 1600 
Q 2369 1600 2344 1631 
Q 2331 1803 2304 1878 
Q 2278 1953 2150 2011 
Q 2022 2069 1759 2069 
z
" transform="scale(0.015625)"/>
       <path id="LinLibertine-20" transform="scale(0.015625)"/>
       <path id="LinLibertine-53" d="M 2525 4038 
Q 2613 3597 2641 3213 
Q 2594 3178 2431 3175 
Q 2400 3275 2370 3354 
Q 2341 3434 2297 3521 
Q 2253 3609 2201 3675 
Q 2150 3741 2078 3803 
Q 2006 3866 1922 3906 
Q 1838 3947 1727 3970 
Q 1616 3994 1484 3994 
Q 1206 3994 995 3772 
Q 784 3550 784 3278 
Q 784 3128 853 2995 
Q 922 2863 1015 2773 
Q 1109 2684 1261 2596 
Q 1413 2509 1516 2467 
Q 1619 2425 1772 2365 
Q 1925 2306 1966 2291 
Q 2153 2209 2298 2117 
Q 2444 2025 2573 1892 
Q 2703 1759 2772 1578 
Q 2841 1397 2841 1178 
Q 2841 875 2678 597 
Q 2516 319 2241 147 
Q 1903 -63 1450 -63 
Q 1147 -63 814 10 
Q 481 84 300 84 
Q 203 488 172 1056 
Q 272 1109 381 1075 
Q 581 166 1503 166 
Q 1888 166 2095 367 
Q 2303 569 2303 953 
Q 2303 1128 2248 1273 
Q 2194 1419 2123 1508 
Q 2053 1597 1923 1680 
Q 1794 1763 1708 1800 
Q 1622 1838 1464 1898 
Q 1306 1959 1250 1984 
Q 972 2106 784 2239 
Q 597 2372 461 2597 
Q 325 2822 325 3103 
Q 325 3597 683 3905 
Q 1041 4213 1544 4213 
Q 1909 4213 2173 4131 
Q 2438 4050 2525 4038 
z
" transform="scale(0.015625)"/>
      </defs>
      <use xlink:href="#LinLibertine-46"/>
      <use xlink:href="#LinLibertine-31" transform="translate(47.65625 0)"/>
      <use xlink:href="#LinLibertine-20" transform="translate(94.140625 0)"/>
      <use xlink:href="#LinLibertine-53" transform="translate(119.140625 0)"/>
      <use xlink:href="#LinLibertine-63" transform="translate(167.626953 0)"/>
      <use xlink:href="#LinLibertine-6f" transform="translate(210.400391 0)"/>
      <use xlink:href="#LinLibertine-72" transform="translate(260.791016 0)"/>
      <use xlink:href="#LinLibertine-65" transform="translate(297.949219 0)"/>
     </g>
    </g>
   </g>
   <g id="patch_3">
    <path d="M 82.38 168.0126 
L 130.82 168.0126 
L 130.82 166.952817 
L 82.38 166.952817 
L 82.38 168.0126 
z
" clip-path="url(#pb53eb5a566)" style="fill: #55a868; opacity: 0.82; stroke: #000000; stroke-linejoin: miter"/>
   </g>
   <g id="line2d_19">
    <path d="M 106.6 168.0126 
L 106.6 168.542491 
" clip-path="url(#pb53eb5a566)" style="fill: none; stroke: #000000; stroke-width: 1.3; stroke-linecap: square"/>
   </g>
   <g id="line2d_20">
    <path d="M 106.6 166.952817 
L 106.6 166.422926 
" clip-path="url(#pb53eb5a566)" style="fill: none; stroke: #000000; stroke-width: 1.3; stroke-linecap: square"/>
   </g>
   <g id="line2d_21">
    <path d="M 94.49 168.542491 
L 118.71 168.542491 
" clip-path="url(#pb53eb5a566)" style="fill: none; stroke: #000000; stroke-width: 1.3; stroke-linecap: square"/>
   </g>
   <g id="line2d_22">
    <path d="M 94.49 166.422926 
L 118.71 166.422926 
" clip-path="url(#pb53eb5a566)" style="fill: none; stroke: #000000; stroke-width: 1.3; stroke-linecap: square"/>
   </g>
   <g id="line2d_23"/>
   <g id="patch_4">
    <path d="M 179.26 228.647568 
L 227.7 228.647568 
L 227.7 181.240223 
L 179.26 181.240223 
L 179.26 228.647568 
z
" clip-path="url(#pb53eb5a566)" style="fill: #55a868; opacity: 0.82; stroke: #000000; stroke-linejoin: miter"/>
   </g>
   <g id="line2d_24">
    <path d="M 203.48 228.647568 
L 203.48 252.35124 
" clip-path="url(#pb53eb5a566)" style="fill: none; stroke: #000000; stroke-width: 1.3; stroke-linecap: square"/>
   </g>
   <g id="line2d_25">
    <path d="M 203.48 181.240223 
L 203.48 157.536551 
" clip-path="url(#pb53eb5a566)" style="fill: none; stroke: #000000; stroke-width: 1.3; stroke-linecap: square"/>
   </g>
   <g id="line2d_26">
    <path d="M 191.37 252.35124 
L 215.59 252.35124 
" clip-path="url(#pb53eb5a566)" style="fill: none; stroke: #000000; stroke-width: 1.3; stroke-linecap: square"/>
   </g>
   <g id="line2d_27">
    <path d="M 191.37 157.536551 
L 215.59 157.536551 
" clip-path="url(#pb53eb5a566)" style="fill: none; stroke: #000000; stroke-width: 1.3; stroke-linecap: square"/>
   </g>
   <g id="line2d_28"/>
   <g id="patch_5">
    <path d="M 276.14 211.680665 
L 324.58 211.680665 
L 324.58 198.867346 
L 276.14 198.867346 
L 276.14 211.680665 
z
" clip-path="url(#pb53eb5a566)" style="fill: #4c72b0; opacity: 0.82; stroke: #000000; stroke-linejoin: miter"/>
   </g>
   <g id="line2d_29">
    <path d="M 300.36 211.680665 
L 300.36 218.087325 
" clip-path="url(#pb53eb5a566)" style="fill: none; stroke: #000000; stroke-width: 1.3; stroke-linecap: square"/>
   </g>
   <g id="line2d_30">
    <path d="M 300.36 198.867346 
L 300.36 192.460687 
" clip-path="url(#pb53eb5a566)" style="fill: none; stroke: #000000; stroke-width: 1.3; stroke-linecap: square"/>
   </g>
   <g id="line2d_31">
    <path d="M 288.25 218.087325 
L 312.47 218.087325 
" clip-path="url(#pb53eb5a566)" style="fill: none; stroke: #000000; stroke-width: 1.3; stroke-linecap: square"/>
   </g>
   <g id="line2d_32">
    <path d="M 288.25 192.460687 
L 312.47 192.460687 
" clip-path="url(#pb53eb5a566)" style="fill: none; stroke: #000000; stroke-width: 1.3; stroke-linecap: square"/>
   </g>
   <g id="line2d_33"/>
   <g id="patch_6">
    <path d="M 373.02 257.135885 
L 421.46 257.135885 
L 421.46 235.198126 
L 373.02 235.198126 
L 373.02 257.135885 
z
" clip-path="url(#pb53eb5a566)" style="fill: #4c72b0; opacity: 0.82; stroke: #000000; stroke-linejoin: miter"/>
   </g>
   <g id="line2d_34">
    <path d="M 397.24 257.135885 
L 397.24 268.104764 
" clip-path="url(#pb53eb5a566)" style="fill: none; stroke: #000000; stroke-width: 1.3; stroke-linecap: square"/>
   </g>
   <g id="line2d_35">
    <path d="M 397.24 235.198126 
L 397.24 224.229246 
" clip-path="url(#pb53eb5a566)" style="fill: none; stroke: #000000; stroke-width: 1.3; stroke-linecap: square"/>
   </g>
   <g id="line2d_36">
    <path d="M 385.13 268.104764 
L 409.35 268.104764 
" clip-path="url(#pb53eb5a566)" style="fill: none; stroke: #000000; stroke-width: 1.3; stroke-linecap: square"/>
   </g>
   <g id="line2d_37">
    <path d="M 385.13 224.229246 
L 409.35 224.229246 
" clip-path="url(#pb53eb5a566)" style="fill: none; stroke: #000000; stroke-width: 1.3; stroke-linecap: square"/>
   </g>
   <g id="line2d_38"/>
   <g id="line2d_39">
    <path d="M 82.38 167.482709 
L 130.82 167.482709 
" clip-path="url(#pb53eb5a566)" style="fill: none; stroke: #ffffff; stroke-width: 2.5"/>
   </g>
   <g id="line2d_40">
    <path d="M 179.26 204.943895 
L 227.7 204.943895 
" clip-path="url(#pb53eb5a566)" style="fill: none; stroke: #ffffff; stroke-width: 2.5"/>
   </g>
   <g id="line2d_41">
    <path d="M 276.14 205.274006 
L 324.58 205.274006 
" clip-path="url(#pb53eb5a566)" style="fill: none; stroke: #ffffff; stroke-width: 2.5"/>
   </g>
   <g id="line2d_42">
    <path d="M 373.02 246.167005 
L 421.46 246.167005 
" clip-path="url(#pb53eb5a566)" style="fill: none; stroke: #ffffff; stroke-width: 2.5"/>
   </g>
   <g id="patch_7">
    <path d="M 58.16 320.564 
L 58.16 34.48 
" style="fill: none; stroke: #000000; stroke-width: 0.8; stroke-linejoin: miter; stroke-linecap: square"/>
   </g>
   <g id="patch_8">
    <path d="M 58.16 320.564 
L 445.68 320.564 
" style="fill: none; stroke: #000000; stroke-width: 0.8; stroke-linejoin: miter; stroke-linecap: square"/>
   </g>
   <g id="text_13">
    <!-- 0.908 -->
    <g style="fill: #222222" transform="translate(98.803516 162.231129) scale(0.075 -0.075)">
     <use xlink:href="#LinLibertine-30"/>
     <use xlink:href="#LinLibertine-2e" transform="translate(46.484375 0)"/>
     <use xlink:href="#LinLibertine-39" transform="translate(68.457031 0)"/>
     <use xlink:href="#LinLibertine-30" transform="translate(114.941406 0)"/>
     <use xlink:href="#LinLibertine-38" transform="translate(161.425781 0)"/>
    </g>
   </g>
   <g id="text_14">
    <!-- 0.865 -->
    <g style="fill: #222222" transform="translate(195.683516 199.692316) scale(0.075 -0.075)">
     <defs>
      <path id="LinLibertine-36" d="M 866 1966 
Q 813 1709 813 1466 
Q 813 709 1020 431 
Q 1228 153 1581 153 
Q 1831 153 1997 415 
Q 2163 678 2163 1178 
Q 2163 1319 2128 1462 
Q 2094 1606 2017 1759 
Q 1941 1913 1780 2013 
Q 1619 2113 1394 2113 
Q 1091 2113 866 1966 
z
M 925 2197 
Q 1228 2334 1528 2338 
Q 2138 2338 2416 2045 
Q 2694 1753 2694 1294 
Q 2694 800 2387 364 
Q 2081 -72 1509 -72 
Q 1297 -72 1106 -8 
Q 916 56 717 214 
Q 519 372 400 698 
Q 281 1025 281 1484 
Q 281 2341 878 3034 
Q 1409 3656 2278 3909 
Q 2356 3859 2356 3744 
Q 1766 3522 1420 3109 
Q 1075 2697 925 2197 
z
" transform="scale(0.015625)"/>
     </defs>
     <use xlink:href="#LinLibertine-30"/>
     <use xlink:href="#LinLibertine-2e" transform="translate(46.484375 0)"/>
     <use xlink:href="#LinLibertine-38" transform="translate(68.457031 0)"/>
     <use xlink:href="#LinLibertine-36" transform="translate(114.941406 0)"/>
     <use xlink:href="#LinLibertine-35" transform="translate(161.425781 0)"/>
    </g>
   </g>
   <g id="text_15">
    <!-- 0.865 -->
    <g style="fill: #222222" transform="translate(292.563516 200.022427) scale(0.075 -0.075)">
     <use xlink:href="#LinLibertine-30"/>
     <use xlink:href="#LinLibertine-2e" transform="translate(46.484375 0)"/>
     <use xlink:href="#LinLibertine-38" transform="translate(68.457031 0)"/>
     <use xlink:href="#LinLibertine-36" transform="translate(114.941406 0)"/>
     <use xlink:href="#LinLibertine-35" transform="translate(161.425781 0)"/>
    </g>
   </g>
   <g id="text_16">
    <!-- 0.818 -->
    <g style="fill: #222222" transform="translate(389.443516 240.915426) scale(0.075 -0.075)">
     <use xlink:href="#LinLibertine-30"/>
     <use xlink:href="#LinLibertine-2e" transform="translate(46.484375 0)"/>
     <use xlink:href="#LinLibertine-38" transform="translate(68.457031 0)"/>
     <use xlink:href="#LinLibertine-31" transform="translate(114.941406 0)"/>
     <use xlink:href="#LinLibertine-38" transform="translate(161.425781 0)"/>
    </g>
   </g>
   <g id="text_17">
    <!-- Model comparison — F1 Score -->
    <g transform="translate(178.409687 24.48) scale(0.12 -0.12)">
     <defs>
      <path id="LinLibertine-4d" d="M 4241 744 
L 4078 3419 
L 4063 3419 
L 2625 31 
Q 2588 -41 2534 -38 
Q 2463 -38 2438 31 
L 1113 3353 
L 1100 3353 
L 856 788 
Q 831 488 907 356 
Q 984 225 1281 197 
Q 1306 166 1306 89 
Q 1306 13 1281 -13 
Q 897 0 678 0 
Q 513 0 128 -13 
Q 103 13 103 89 
Q 103 166 128 197 
Q 391 219 484 344 
Q 578 469 606 775 
L 863 3413 
Q 894 3766 831 3837 
Q 769 3909 428 3928 
Q 397 3953 397 4031 
Q 397 4109 428 4141 
L 1356 4128 
L 2669 878 
Q 2706 794 2719 794 
Q 2738 794 2778 884 
L 4134 4128 
L 4972 4141 
Q 5003 4109 5004 4032 
Q 5006 3956 4972 3928 
Q 4656 3909 4584 3825 
Q 4513 3741 4534 3469 
L 4725 775 
Q 4734 622 4742 547 
Q 4750 472 4773 395 
Q 4797 319 4820 292 
Q 4844 266 4905 241 
Q 4966 216 5030 209 
Q 5094 203 5216 197 
Q 5247 166 5247 89 
Q 5247 13 5216 -13 
Q 4794 0 4519 0 
Q 4434 0 3834 -13 
Q 3803 13 3803 89 
Q 3803 166 3834 197 
Q 3959 203 4012 208 
Q 4066 213 4128 234 
Q 4191 256 4208 281 
Q 4225 306 4240 376 
Q 4256 447 4253 522 
Q 4250 597 4241 744 
z
" transform="scale(0.015625)"/>
      <path id="LinLibertine-6c" d="M 609 781 
L 609 3578 
Q 609 3784 598 3886 
Q 588 3988 517 4036 
Q 447 4084 409 4087 
Q 372 4091 197 4103 
Q 125 4175 159 4294 
Q 728 4338 1056 4469 
Q 1141 4469 1141 4403 
Q 1116 4147 1113 3731 
L 1113 781 
Q 1113 397 1194 305 
Q 1275 213 1575 197 
Q 1600 166 1600 89 
Q 1600 13 1575 -13 
Q 1025 0 863 0 
Q 684 0 147 -13 
Q 116 13 116 89 
Q 116 166 147 197 
Q 447 209 528 303 
Q 609 397 609 781 
z
" transform="scale(0.015625)"/>
      <path id="LinLibertine-6e" d="M 1178 2291 
Q 1647 2809 2228 2809 
Q 2594 2809 2759 2591 
Q 2931 2359 2931 1734 
L 2931 781 
Q 2931 403 3004 314 
Q 3078 225 3359 197 
Q 3384 172 3384 95 
Q 3384 19 3359 -13 
Q 2809 0 2681 0 
Q 2566 0 2028 -13 
Q 2003 13 2003 89 
Q 2003 166 2028 197 
Q 2291 222 2358 312 
Q 2425 403 2425 781 
L 2425 1753 
Q 2425 2094 2350 2247 
Q 2228 2478 2009 2478 
Q 1619 2478 1228 2100 
Q 1119 1978 1119 1831 
L 1119 781 
Q 1119 403 1183 314 
Q 1247 225 1503 197 
Q 1534 166 1536 89 
Q 1538 13 1503 -13 
Q 966 0 872 0 
Q 694 0 166 -13 
Q 141 13 141 89 
Q 141 166 166 197 
Q 466 222 541 309 
Q 616 397 616 781 
L 616 2028 
Q 616 2297 542 2367 
Q 469 2438 197 2463 
Q 159 2572 184 2644 
Q 684 2706 991 2828 
Q 1041 2828 1069 2778 
Q 1119 2663 1119 2291 
Q 1122 2213 1178 2291 
z
" transform="scale(0.015625)"/>
      <path id="LinLibertine-2014" d="M 313 1522 
Q 222 1522 225 1631 
Q 225 1688 278 1763 
Q 331 1838 391 1838 
L 4384 1838 
Q 4475 1838 4475 1728 
Q 4475 1666 4420 1594 
Q 4366 1522 4306 1522 
L 313 1522 
z
" transform="scale(0.015625)"/>
     </defs>
     <use xlink:href="#LinLibertine-4d"/>
     <use xlink:href="#LinLibertine-6f" transform="translate(83.886719 0)"/>
     <use xlink:href="#LinLibertine-64" transform="translate(134.277344 0)"/>
     <use xlink:href="#LinLibertine-65" transform="translate(184.863281 0)"/>
     <use xlink:href="#LinLibertine-6c" transform="translate(229.541016 0)"/>
     <use xlink:href="#LinLibertine-20" transform="translate(255.908203 0)"/>
     <use xlink:href="#LinLibertine-63" transform="translate(280.908203 0)"/>
     <use xlink:href="#LinLibertine-6f" transform="translate(323.681641 0)"/>
     <use xlink:href="#LinLibertine-6d" transform="translate(374.072266 0)"/>
     <use xlink:href="#LinLibertine-70" transform="translate(453.027344 0)"/>
     <use xlink:href="#LinLibertine-61" transform="translate(504.882812 0)"/>
     <use xlink:href="#LinLibertine-72" transform="translate(550.537109 0)"/>
     <use xlink:href="#LinLibertine-69" transform="translate(587.695312 0)"/>
     <use xlink:href="#LinLibertine-73" transform="translate(614.794922 0)"/>
     <use xlink:href="#LinLibertine-6f" transform="translate(653.759766 0)"/>
     <use xlink:href="#LinLibertine-6e" transform="translate(704.150391 0)"/>
     <use xlink:href="#LinLibertine-20" transform="translate(758.349609 0)"/>
     <use xlink:href="#LinLibertine-2014" transform="translate(783.349609 0)"/>
     <use xlink:href="#LinLibertine-20" transform="translate(857.519531 0)"/>
     <use xlink:href="#LinLibertine-46" transform="translate(882.519531 0)"/>
     <use xlink:href="#LinLibertine-31" transform="translate(930.175781 0)"/>
     <use xlink:href="#LinLibertine-20" transform="translate(976.660156 0)"/>
     <use xlink:href="#LinLibertine-53" transform="translate(1001.660156 0)"/>
     <use xlink:href="#LinLibertine-63" transform="translate(1050.146484 0)"/>
     <use xlink:href="#LinLibertine-6f" transform="translate(1092.919922 0)"/>
     <use xlink:href="#LinLibertine-72" transform="translate(1143.310547 0)"/>
     <use xlink:href="#LinLibertine-65" transform="translate(1180.46875 0)"/>
    </g>
   </g>
   <g id="legend_1">
    <g id="patch_9">
     <path d="M 327.45875 316.564 
L 440.08 316.564 
Q 441.68 316.564 441.68 314.964 
L 441.68 292.69525 
Q 441.68 291.09525 440.08 291.09525 
L 327.45875 291.09525 
Q 325.85875 291.09525 325.85875 292.69525 
L 325.85875 314.964 
Q 325.85875 316.564 327.45875 316.564 
z
" style="fill: #ffffff; opacity: 0.8; stroke: #cccccc; stroke-linejoin: miter"/>
    </g>
    <g id="patch_10">
     <path d="M 329.05875 299.89525 
L 345.05875 299.89525 
L 345.05875 294.29525 
L 329.05875 294.29525 
z
" style="fill: #4c72b0; stroke: #4c72b0; stroke-linejoin: miter"/>
    </g>
    <g id="text_18">
     <!-- Registered images -->
     <g transform="translate(351.45875 299.89525) scale(0.08 -0.08)">
      <defs>
       <path id="LinLibertine-52" d="M 1741 3956 
Q 1209 3956 1209 3547 
L 1209 2081 
L 1516 2081 
Q 2034 2081 2312 2292 
Q 2591 2503 2591 3059 
Q 2591 3956 1741 3956 
z
M 1209 781 
Q 1209 397 1309 305 
Q 1409 213 1766 197 
Q 1791 166 1791 89 
Q 1791 13 1766 -13 
Q 1125 0 941 0 
Q 734 0 109 -13 
Q 78 13 78 89 
Q 78 166 109 197 
Q 469 209 567 303 
Q 666 397 666 781 
L 666 3347 
Q 666 3731 567 3823 
Q 469 3916 109 3928 
Q 78 3953 78 4031 
Q 78 4109 109 4141 
Q 750 4128 934 4128 
Q 1069 4128 1366 4150 
Q 1663 4172 1734 4172 
Q 2113 4172 2375 4114 
Q 2638 4056 2841 3866 
Q 3181 3547 3181 3066 
Q 3181 2625 2903 2347 
Q 2625 2069 2328 1972 
L 3138 628 
Q 3284 384 3418 259 
Q 3553 134 3750 134 
Q 3794 50 3756 -19 
Q 3666 -63 3488 -63 
Q 2994 -63 2644 506 
L 1959 1619 
Q 1881 1747 1731 1805 
Q 1581 1863 1209 1863 
L 1209 781 
z
" transform="scale(0.015625)"/>
      </defs>
      <use xlink:href="#LinLibertine-52"/>
      <use xlink:href="#LinLibertine-65" transform="translate(58.691406 0)"/>
      <use xlink:href="#LinLibertine-67" transform="translate(103.369141 0)"/>
      <use xlink:href="#LinLibertine-69" transform="translate(153.369141 0)"/>
      <use xlink:href="#LinLibertine-73" transform="translate(180.46875 0)"/>
      <use xlink:href="#LinLibertine-74" transform="translate(219.433594 0)"/>
      <use xlink:href="#LinLibertine-65" transform="translate(251.025391 0)"/>
      <use xlink:href="#LinLibertine-72" transform="translate(295.703125 0)"/>
      <use xlink:href="#LinLibertine-65" transform="translate(332.861328 0)"/>
      <use xlink:href="#LinLibertine-64" transform="translate(377.539062 0)"/>
      <use xlink:href="#LinLibertine-20" transform="translate(428.125 0)"/>
      <use xlink:href="#LinLibertine-69" transform="translate(453.125 0)"/>
      <use xlink:href="#LinLibertine-6d" transform="translate(480.224609 0)"/>
      <use xlink:href="#LinLibertine-61" transform="translate(559.179688 0)"/>
      <use xlink:href="#LinLibertine-67" transform="translate(604.833984 0)"/>
      <use xlink:href="#LinLibertine-65" transform="translate(654.833984 0)"/>
      <use xlink:href="#LinLibertine-73" transform="translate(699.511719 0)"/>
     </g>
    </g>
    <g id="patch_11">
     <path d="M 329.05875 311.4615 
L 345.05875 311.4615 
L 345.05875 305.8615 
L 329.05875 305.8615 
z
" style="fill: #55a868; stroke: #55a868; stroke-linejoin: miter"/>
    </g>
    <g id="text_19">
     <!-- Raw (unregistered) images -->
     <g transform="translate(351.45875 311.4615) scale(0.08 -0.08)">
      <use xlink:href="#LinLibertine-52"/>
      <use xlink:href="#LinLibertine-61" transform="translate(58.691406 0)"/>
      <use xlink:href="#LinLibertine-77" transform="translate(104.345703 0)"/>
      <use xlink:href="#LinLibertine-20" transform="translate(179.003906 0)"/>
      <use xlink:href="#LinLibertine-28" transform="translate(204.003906 0)"/>
      <use xlink:href="#LinLibertine-75" transform="translate(233.789062 0)"/>
      <use xlink:href="#LinLibertine-6e" transform="translate(286.865234 0)"/>
      <use xlink:href="#LinLibertine-72" transform="translate(341.064453 0)"/>
      <use xlink:href="#LinLibertine-65" transform="translate(378.222656 0)"/>
      <use xlink:href="#LinLibertine-67" transform="translate(422.900391 0)"/>
      <use xlink:href="#LinLibertine-69" transform="translate(472.900391 0)"/>
      <use xlink:href="#LinLibertine-73" transform="translate(500 0)"/>
      <use xlink:href="#LinLibertine-74" transform="translate(538.964844 0)"/>
      <use xlink:href="#LinLibertine-65" transform="translate(570.556641 0)"/>
      <use xlink:href="#LinLibertine-72" transform="translate(615.234375 0)"/>
      <use xlink:href="#LinLibertine-65" transform="translate(652.392578 0)"/>
      <use xlink:href="#LinLibertine-64" transform="translate(697.070312 0)"/>
      <use xlink:href="#LinLibertine-29" transform="translate(747.65625 0)"/>
      <use xlink:href="#LinLibertine-20" transform="translate(777.441406 0)"/>
      <use xlink:href="#LinLibertine-69" transform="translate(802.441406 0)"/>
      <use xlink:href="#LinLibertine-6d" transform="translate(829.541016 0)"/>
      <use xlink:href="#LinLibertine-61" transform="translate(908.496094 0)"/>
      <use xlink:href="#LinLibertine-67" transform="translate(954.150391 0)"/>
      <use xlink:href="#LinLibertine-65" transform="translate(1004.150391 0)"/>
      <use xlink:href="#LinLibertine-73" transform="translate(1048.828125 0)"/>
     </g>
    </g>
   </g>
  </g>
 </g>
 <defs>
  <clipPath id="pb53eb5a566">
   <rect x="58.16" y="34.48" width="387.52" height="286.084"/>
  </clipPath>
 </defs>
</svg>
